<svg width="26" height="21" viewBox="0 0 26 21" fill="none" xmlns="http://www.w3.org/2000/svg">
<path d="M13 0.5C13.6914 0.5 14.25 1.05859 14.25 1.75V4.25H18.9375C20.4922 4.25 21.75 5.50781 21.75 7.0625V17.6875C21.75 19.2422 20.4922 20.5 18.9375 20.5H7.0625C5.50781 20.5 4.25 19.2422 4.25 17.6875V7.0625C4.25 5.50781 5.50781 4.25 7.0625 4.25H11.75V1.75C11.75 1.05859 12.3086 0.5 13 0.5ZM8.625 15.5C8.28125 15.5 8 15.7812 8 16.125C8 16.4688 8.28125 16.75 8.625 16.75H9.875C10.2188 16.75 10.5 16.4688 10.5 16.125C10.5 15.7812 10.2188 15.5 9.875 15.5H8.625ZM12.375 15.5C12.0312 15.5 11.75 15.7812 11.75 16.125C11.75 16.4688 12.0312 16.75 12.375 16.75H13.625C13.9688 16.75 14.25 16.4688 14.25 16.125C14.25 15.7812 13.9688 15.5 13.625 15.5H12.375ZM16.125 15.5C15.7812 15.5 15.5 15.7812 15.5 16.125C15.5 16.4688 15.7812 16.75 16.125 16.75H17.375C17.7188 16.75 18 16.4688 18 16.125C18 15.7812 17.7188 15.5 17.375 15.5H16.125ZM10.8125 10.5C10.8125 10.0856 10.6479 9.68817 10.3549 9.39515C10.0618 9.10212 9.6644 8.9375 9.25 8.9375C8.8356 8.9375 8.43817 9.10212 8.14515 9.39515C7.85212 9.68817 7.6875 10.0856 7.6875 10.5C7.6875 10.9144 7.85212 11.3118 8.14515 11.6049C8.43817 11.8979 8.8356 12.0625 9.25 12.0625C9.6644 12.0625 10.0618 11.8979 10.3549 11.6049C10.6479 11.3118 10.8125 10.9144 10.8125 10.5ZM16.75 12.0625C17.1644 12.0625 17.5618 11.8979 17.8549 11.6049C18.1479 11.3118 18.3125 10.9144 18.3125 10.5C18.3125 10.0856 18.1479 9.68817 17.8549 9.39515C17.5618 9.10212 17.1644 8.9375 16.75 8.9375C16.3356 8.9375 15.9382 9.10212 15.6451 9.39515C15.3521 9.68817 15.1875 10.0856 15.1875 10.5C15.1875 10.9144 15.3521 11.3118 15.6451 11.6049C15.9382 11.8979 16.3356 12.0625 16.75 12.0625ZM2.375 9.25H3V16.75H2.375C1.33984 16.75 0.5 15.9102 0.5 14.875V11.125C0.5 10.0898 1.33984 9.25 2.375 9.25ZM23.625 9.25C24.6602 9.25 25.5 10.0898 25.5 11.125V14.875C25.5 15.9102 24.6602 16.75 23.625 16.75H23V9.25H23.625Z" fill="#0284C7"/>
</svg>
