<svg width="21" height="21" viewBox="0 0 21 21" fill="none" xmlns="http://www.w3.org/2000/svg">
<path d="M10.4688 0.5C13.1209 0.5 15.6645 1.55357 17.5398 3.42893C19.4152 5.3043 20.4688 7.84784 20.4688 10.5C20.4688 13.1522 19.4152 15.6957 17.5398 17.5711C15.6645 19.4464 13.1209 20.5 10.4688 20.5C7.81659 20.5 5.27305 19.4464 3.39768 17.5711C1.52232 15.6957 0.46875 13.1522 0.46875 10.5C0.46875 7.84784 1.52232 5.3043 3.39768 3.42893C5.27305 1.55357 7.81659 0.5 10.4688 0.5ZM9.53125 5.1875V10.5C9.53125 10.8125 9.6875 11.1055 9.94922 11.2812L13.6992 13.7812C14.1289 14.0703 14.7109 13.9531 15 13.5195C15.2891 13.0859 15.1719 12.5078 14.7383 12.2188L11.4062 10V5.1875C11.4062 4.66797 10.9883 4.25 10.4688 4.25C9.94922 4.25 9.53125 4.66797 9.53125 5.1875Z" fill="#0284C7"/>
</svg>
