<svg width="14" height="21" viewBox="0 0 14 21" fill="none" xmlns="http://www.w3.org/2000/svg">
<path d="M0.125 3C0.125 1.62109 1.24609 0.5 2.625 0.5H11.375C12.7539 0.5 13.875 1.62109 13.875 3V18C13.875 19.3789 12.7539 20.5 11.375 20.5H2.625C1.24609 20.5 0.125 19.3789 0.125 18V3ZM5.125 18C5.125 18.3438 5.40625 18.625 5.75 18.625H8.25C8.59375 18.625 8.875 18.3438 8.875 18C8.875 17.6562 8.59375 17.375 8.25 17.375H5.75C5.40625 17.375 5.125 17.6562 5.125 18ZM11.375 3H2.625V15.5H11.375V3Z" fill="#0284C7"/>
</svg>
