<svg width="26" height="19" viewBox="0 0 26 19" fill="none" xmlns="http://www.w3.org/2000/svg">
<path d="M13.0001 0.75C12.6837 0.75 12.3712 0.804687 12.0743 0.910156L1.1173 4.86719C0.746207 5.00391 0.500113 5.35547 0.500113 5.75C0.500113 6.14453 0.746207 6.49609 1.1173 6.63281L3.37902 7.44922C2.73839 8.45703 2.37511 9.64844 2.37511 10.9023V12C2.37511 13.1094 1.95324 14.2539 1.50402 15.1562C1.25011 15.6641 0.961051 16.1641 0.625113 16.625C0.500113 16.793 0.464957 17.0117 0.535269 17.2109C0.605582 17.4102 0.769644 17.5586 0.972769 17.6094L3.47277 18.2344C3.63683 18.2773 3.81261 18.2461 3.95714 18.1562C4.10168 18.0664 4.20324 17.918 4.23449 17.75C4.57043 16.0781 4.40246 14.5781 4.15246 13.5039C4.02746 12.9492 3.85949 12.3828 3.62511 11.8633V10.9023C3.62511 9.72266 4.02355 8.60937 4.71496 7.71875C5.21886 7.11328 5.87121 6.625 6.63683 6.32422L12.7696 3.91406C13.09 3.78906 13.4532 3.94531 13.5782 4.26562C13.7032 4.58594 13.547 4.94922 13.2267 5.07422L7.09386 7.48438C6.60949 7.67578 6.18371 7.96875 5.83605 8.32812L12.0704 10.5781C12.3673 10.6836 12.6798 10.7383 12.9962 10.7383C13.3126 10.7383 13.6251 10.6836 13.922 10.5781L24.8829 6.63281C25.254 6.5 25.5001 6.14453 25.5001 5.75C25.5001 5.35547 25.254 5.00391 24.8829 4.86719L13.9259 0.910156C13.629 0.804687 13.3165 0.75 13.0001 0.75ZM5.50011 15.4375C5.50011 16.8164 8.85949 18.25 13.0001 18.25C17.1407 18.25 20.5001 16.8164 20.5001 15.4375L19.9025 9.75781L14.3478 11.7656C13.9142 11.9219 13.4571 12 13.0001 12C12.5431 12 12.0821 11.9219 11.6525 11.7656L6.09777 9.75781L5.50011 15.4375Z" fill="#0284C7"/>
</svg>
