<svg width="21" height="21" viewBox="0 0 21 21" fill="none" xmlns="http://www.w3.org/2000/svg">
<path d="M8.78907 0.785165C8.5547 0.539072 8.20313 0.445322 7.87501 0.531259C7.54688 0.617197 7.29298 0.878915 7.20704 1.20704L6.58985 3.64845L4.16798 2.96485C3.83985 2.8711 3.48829 2.96485 3.25001 3.20313C3.01173 3.44142 2.91798 3.79298 3.01173 4.1211L3.69532 6.54298L1.25392 7.16407C0.92579 7.2461 0.667978 7.50392 0.578134 7.83204C0.48829 8.16017 0.585947 8.50782 0.83204 8.7422L2.63673 10.5L0.83204 12.2578C0.585947 12.4922 0.492197 12.8438 0.578134 13.1719C0.664072 13.5 0.92579 13.7539 1.25392 13.8399L3.69532 14.457L3.01173 16.8789C2.91798 17.207 3.01173 17.5586 3.25001 17.7969C3.48829 18.0352 3.83985 18.1289 4.16798 18.0352L6.58985 17.3516L7.20704 19.793C7.28907 20.1211 7.54688 20.3789 7.87501 20.4688C8.20313 20.5586 8.55079 20.4609 8.78907 20.2188L10.5469 18.4141L12.3047 20.2188C12.543 20.4609 12.8906 20.5586 13.2188 20.4688C13.5469 20.3789 13.8008 20.1211 13.8867 19.793L14.5039 17.3516L16.9258 18.0352C17.2539 18.1289 17.6055 18.0352 17.8438 17.7969C18.082 17.5586 18.1758 17.207 18.082 16.8789L17.3984 14.457L19.8399 13.8399C20.168 13.7578 20.4258 13.5 20.5156 13.1719C20.6055 12.8438 20.5078 12.4961 20.2656 12.2578L18.4609 10.5L20.2656 8.7422C20.5078 8.50392 20.6055 8.15626 20.5156 7.82813C20.4258 7.50001 20.168 7.2461 19.8399 7.16017L17.3984 6.54298L18.082 4.1211C18.1758 3.79298 18.082 3.44142 17.8438 3.20313C17.6055 2.96485 17.2539 2.8711 16.9258 2.96485L14.5039 3.64845L13.8828 1.20704C13.8008 0.878915 13.543 0.621103 13.2149 0.531259C12.8867 0.441415 12.5391 0.539072 12.3047 0.785165L10.5469 2.58985L8.78907 0.785165Z" fill="#0284C7"/>
</svg>
