<svg width="20" height="21" viewBox="0 0 20 21" fill="none" xmlns="http://www.w3.org/2000/svg">
<path d="M10 2.375C5.51172 2.375 1.875 6.01172 1.875 10.5V12.0625C1.875 12.582 1.45703 13 0.9375 13C0.417969 13 0 12.582 0 12.0625V10.5C0 4.97656 4.47656 0.5 10 0.5C15.5234 0.5 20 4.97656 20 10.5V16.1289C20 18.0273 18.4609 19.5664 16.5586 19.5664L12.25 19.5625C11.9258 20.1211 11.3203 20.5 10.625 20.5H9.375C8.33984 20.5 7.5 19.6602 7.5 18.625C7.5 17.5898 8.33984 16.75 9.375 16.75H10.625C11.3203 16.75 11.9258 17.1289 12.25 17.6875L16.5625 17.6914C17.4258 17.6914 18.125 16.9922 18.125 16.1289V10.5C18.125 6.01172 14.4883 2.375 10 2.375ZM5.625 8.625H6.25C6.94141 8.625 7.5 9.18359 7.5 9.875V14.25C7.5 14.9414 6.94141 15.5 6.25 15.5H5.625C4.24609 15.5 3.125 14.3789 3.125 13V11.125C3.125 9.74609 4.24609 8.625 5.625 8.625ZM14.375 8.625C15.7539 8.625 16.875 9.74609 16.875 11.125V13C16.875 14.3789 15.7539 15.5 14.375 15.5H13.75C13.0586 15.5 12.5 14.9414 12.5 14.25V9.875C12.5 9.18359 13.0586 8.625 13.75 8.625H14.375Z" fill="#0284C7"/>
</svg>
