<svg width="20" height="19" viewBox="0 0 20 19" fill="none" xmlns="http://www.w3.org/2000/svg">
<path d="M2.5 0.75C1.12109 0.75 0 1.87109 0 3.25V15.75C0 17.1289 1.12109 18.25 2.5 18.25H17.5C18.8789 18.25 20 17.1289 20 15.75V7C20 5.62109 18.8789 4.5 17.5 4.5H3.125C2.78125 4.5 2.5 4.21875 2.5 3.875C2.5 3.53125 2.78125 3.25 3.125 3.25H17.5C18.1914 3.25 18.75 2.69141 18.75 2C18.75 1.30859 18.1914 0.75 17.5 0.75H2.5ZM16.25 10.125C16.5815 10.125 16.8995 10.2567 17.1339 10.4911C17.3683 10.7255 17.5 11.0435 17.5 11.375C17.5 11.7065 17.3683 12.0245 17.1339 12.2589C16.8995 12.4933 16.5815 12.625 16.25 12.625C15.9185 12.625 15.6005 12.4933 15.3661 12.2589C15.1317 12.0245 15 11.7065 15 11.375C15 11.0435 15.1317 10.7255 15.3661 10.4911C15.6005 10.2567 15.9185 10.125 16.25 10.125Z" fill="#0284C7"/>
</svg>
