<svg width="16" height="21" viewBox="0 0 16 21" fill="none" xmlns="http://www.w3.org/2000/svg">
<path d="M12.8986 2.2423C13.1291 1.70714 12.9572 1.08214 12.4845 0.738391C12.0119 0.39464 11.3673 0.425891 10.9259 0.808703L0.925936 9.5587C0.535311 9.90245 0.394686 10.4532 0.578279 10.9376C0.761873 11.422 1.23062 11.7501 1.75015 11.7501H6.10562L3.10172 18.7579C2.87125 19.2931 3.04312 19.9181 3.51578 20.2618C3.98844 20.6056 4.63297 20.5743 5.07437 20.1915L15.0744 11.4415C15.465 11.0978 15.6056 10.547 15.422 10.0626C15.2384 9.57823 14.7736 9.25402 14.2502 9.25402H9.89469L12.8986 2.2423Z" fill="#0284C7"/>
</svg>
