<svg width="20" height="19" viewBox="0 0 20 19" fill="none" xmlns="http://www.w3.org/2000/svg">
<path d="M2.5 2C2.5 1.30859 1.94141 0.75 1.25 0.75C0.558594 0.75 0 1.30859 0 2V15.125C0 16.8516 1.39844 18.25 3.125 18.25H18.75C19.4414 18.25 20 17.6914 20 17C20 16.3086 19.4414 15.75 18.75 15.75H3.125C2.78125 15.75 2.5 15.4688 2.5 15.125V2ZM18.3828 5.38281C18.8711 4.89453 18.8711 4.10156 18.3828 3.61328C17.8945 3.125 17.1016 3.125 16.6133 3.61328L12.5 7.73047L10.2578 5.48828C9.76953 5 8.97656 5 8.48828 5.48828L4.11328 9.86328C3.625 10.3516 3.625 11.1445 4.11328 11.6328C4.60156 12.1211 5.39453 12.1211 5.88281 11.6328L9.375 8.14453L11.6172 10.3867C12.1055 10.875 12.8984 10.875 13.3867 10.3867L18.3867 5.38672L18.3828 5.38281Z" fill="#0284C7"/>
</svg>
